<svg width="20" height="20" viewBox="0 0 20 20" fill="none" xmlns="http://www.w3.org/2000/svg">
<path d="M8.74167 1.8583L4.58334 3.42497C3.62501 3.7833 2.84167 4.91663 2.84167 5.9333V12.125C2.84167 13.1083 3.49167 14.4 4.28334 14.9916L7.86667 17.6666C9.04167 18.55 10.975 18.55 12.15 17.6666L15.7333 14.9916C16.525 14.4 17.175 13.1083 17.175 12.125V5.9333C17.175 4.9083 16.3917 3.77497 15.4333 3.41663L11.275 1.8583C10.5667 1.59997 9.43334 1.59997 8.74167 1.8583Z" stroke="#B38929" stroke-width="1.5" stroke-linecap="round" stroke-linejoin="round"/>
<path d="M9.99998 10.4166C10.9205 10.4166 11.6666 9.67039 11.6666 8.74992C11.6666 7.82944 10.9205 7.08325 9.99998 7.08325C9.07951 7.08325 8.33331 7.82944 8.33331 8.74992C8.33331 9.67039 9.07951 10.4166 9.99998 10.4166Z" stroke="#B38929" stroke-width="1.5" stroke-miterlimit="10" stroke-linecap="round" stroke-linejoin="round"/>
<path d="M10 10.4167V12.9167" stroke="#B38929" stroke-width="1.5" stroke-miterlimit="10" stroke-linecap="round" stroke-linejoin="round"/>
</svg>
