<svg width="24" height="24" viewBox="0 0 24 24" fill="none" xmlns="http://www.w3.org/2000/svg">
<circle cx="12" cy="12" r="12" fill="black"/>
<path d="M12.4093 3.37494L14.8638 4.77753L14.8638 6.7742L12.4093 8.16711L12.4093 3.37494Z" fill="#FF1E6E"/>
<path d="M12.4095 21.3751L14.8641 19.9725L14.8641 17.9757L12.4095 16.5829L12.4095 21.3751Z" fill="#6E072C"/>
<path d="M9.95483 3.37494L12.4094 4.77753L12.4094 8.16711L9.95483 6.76453L9.95483 3.37494Z" fill="#6E072C"/>
<path d="M9.95471 21.3751L12.4092 19.9725L12.4092 16.5829L9.95471 17.9855L9.95471 21.3751Z" fill="#FF1E6E"/>
<path d="M7.50024 8.16742L9.95477 9.57001L9.95477 12.3752L7.50024 10.9726L7.50024 8.16742Z" fill="#6E072C"/>
<path d="M14.864 12.3751L17.3185 13.7776L17.3185 16.5828L14.864 15.1802L14.864 12.3751Z" fill="#6E072C"/>
<path d="M12.4095 8.16736L9.95502 9.56995L9.95502 12.3751L12.4095 10.9725L12.4095 8.16736Z" fill="#FF1E6E"/>
<path d="M14.864 12.3751L12.4095 13.7776L12.4095 16.5828L14.864 15.1802L14.864 12.3751Z" fill="#FF1E6E"/>
<path d="M9.95483 6.76466L12.4094 8.16724L9.95483 9.56983L7.50031 8.16724L9.95483 6.76466Z" fill="#A81348"/>
<path d="M14.864 6.76466L17.3185 8.16724L14.864 9.56983L12.4095 8.16724L14.864 6.76466Z" fill="#A81348"/>
<path d="M9.95483 15.1803L12.4094 16.5829L9.95483 17.9855L7.50031 16.5829L9.95483 15.1803Z" fill="#A81348"/>
<path d="M14.864 15.1803L17.3185 16.5829L14.864 17.9855L12.4095 16.5829L14.864 15.1803Z" fill="#A81348"/>
<path d="M12.4093 10.9724L14.8638 12.3749L12.4093 13.7775L9.95477 12.3749L12.4093 10.9724Z" fill="#A81348"/>
</svg>
