<svg preserveAspectRatio="none" width="100%" height="100%" overflow="visible" style="display: block;" viewBox="0 0 24 24" fill="none" xmlns="http://www.w3.org/2000/svg">
<g id="magicpen">
<path id="Vector" d="M3.5 20.5C4.33 21.33 5.67 21.33 6.5 20.5L19.5 7.5C20.33 6.67 20.33 5.33 19.5 4.5C18.67 3.67 17.33 3.67 16.5 4.5L3.5 17.5C2.67 18.33 2.67 19.67 3.5 20.5Z" stroke="var(--stroke-0, #D4D4D4)" stroke-width="1.5" stroke-linecap="round" stroke-linejoin="round"/>
<path id="Vector_2" d="M18.01 8.99L15.01 5.99" stroke="var(--stroke-0, #D4D4D4)" stroke-width="1.5" stroke-linecap="round" stroke-linejoin="round"/>
<path id="Vector_3" d="M8.5 2.44L10 2L9.56 3.5L10 5L8.5 4.56L7 5L7.44 3.5L7 2L8.5 2.44Z" stroke="var(--stroke-0, #D4D4D4)" stroke-linecap="round" stroke-linejoin="round"/>
<path id="Vector_4" d="M4.5 8.44L6 8L5.56 9.5L6 11L4.5 10.56L3 11L3.44 9.5L3 8L4.5 8.44Z" stroke="var(--stroke-0, #D4D4D4)" stroke-linecap="round" stroke-linejoin="round"/>
<path id="Vector_5" d="M19.5 13.44L21 13L20.56 14.5L21 16L19.5 15.56L18 16L18.44 14.5L18 13L19.5 13.44Z" stroke="var(--stroke-0, #D4D4D4)" stroke-linecap="round" stroke-linejoin="round"/>
<g id="Vector_6" opacity="0">
</g>
</g>
</svg>
