<svg viewBox="0 0 472 450" xmlns="http://www.w3.org/2000/svg" preserveAspectRatio="none">
  <defs>
    <linearGradient id="ray-gradient" x1="0%" y1="0%" x2="100%" y2="0%">
      <stop offset="0%" style="stop-color:#FDBF01;stop-opacity:0.3" />
      <stop offset="50%" style="stop-color:#FFE89F;stop-opacity:0.2" />
      <stop offset="100%" style="stop-color:#FDBF01;stop-opacity:0" />
    </linearGradient>
  </defs>
  
  <g transform="translate(236, 225) rotate(180)">
    <!-- Ray 1 -->
    <path d="M 0,0 L 179.381,-139.358 L 0,-50 Z" fill="url(#ray-gradient)" opacity="0.6"/>
    <!-- Ray 2 -->
    <path d="M 0,0 L 179.381,-139.358 L 0,-50 Z" fill="url(#ray-gradient)" opacity="0.6" transform="rotate(36)"/>
    <!-- Ray 3 -->
    <path d="M 0,0 L 179.381,-139.358 L 0,-50 Z" fill="url(#ray-gradient)" opacity="0.6" transform="rotate(72)"/>
    <!-- Ray 4 -->
    <path d="M 0,0 L 179.381,-139.358 L 0,-50 Z" fill="url(#ray-gradient)" opacity="0.6" transform="rotate(108)"/>
    <!-- Ray 5 -->
    <path d="M 0,0 L 179.381,-139.358 L 0,-50 Z" fill="url(#ray-gradient)" opacity="0.6" transform="rotate(144)"/>
    <!-- Ray 6 -->
    <path d="M 0,0 L 179.381,-139.358 L 0,-50 Z" fill="url(#ray-gradient)" opacity="0.6" transform="rotate(180)"/>
    <!-- Ray 7 -->
    <path d="M 0,0 L 179.381,-139.358 L 0,-50 Z" fill="url(#ray-gradient)" opacity="0.6" transform="rotate(216)"/>
    <!-- Ray 8 -->
    <path d="M 0,0 L 179.381,-139.358 L 0,-50 Z" fill="url(#ray-gradient)" opacity="0.6" transform="rotate(252)"/>
    <!-- Ray 9 -->
    <path d="M 0,0 L 179.381,-139.358 L 0,-50 Z" fill="url(#ray-gradient)" opacity="0.6" transform="rotate(288)"/>
    <!-- Ray 10 -->
    <path d="M 0,0 L 179.381,-139.358 L 0,-50 Z" fill="url(#ray-gradient)" opacity="0.6" transform="rotate(324)"/>
  </g>
</svg>