<svg xmlns="http://www.w3.org/2000/svg" viewBox="0 0 60 60" fill="none">
  <rect x="6" y="2" width="48" height="48" rx="24" fill="white"/>
  <path d="M27.0402 11.9364C27.0402 11.9364 26.5773 16.5006 27.2727 17.2362C27.9681 17.9718 32.26 19.6734 33.0727 21.0649C33.8854 22.4564 33.2654 24.8558 38.4475 29.2273C40.3725 30.8514 39.3838 38.3872 37.9448 39.8248C36.2817 41.4887 28.2048 43.1862 24.6062 40.8684C21.7847 39.0494 20.8945 34.4475 21.0097 33.056C21.1249 31.6645 25.2241 25.4363 26.3845 23.7347C27.545 22.0331 24.6439 21.1047 24.3737 19.906C24.1035 18.7073 24.7989 13.6758 27.0402 11.9364Z" fill="#E2017B"/>
  <path d="M37.3625 24.072C36.6294 24.5771 35.1589 22.8817 35.1589 21.8779C35.1589 20.872 36.8032 19.5162 36.4744 16.9658C36.4744 16.9637 38.9481 22.9802 37.3625 24.072Z" fill="#E2017B"/>
  <path d="M31.1771 16.9637C30.0397 16.2051 29.2836 14.9519 29.4763 13.8685C29.669 12.7851 31.0619 10.6203 31.0221 10C31.0221 10 30.6346 13.5583 31.1771 14.5265C31.7175 15.4947 32.105 17.584 31.1771 16.9637Z" fill="#E2017B"/>
  <path d="M23.0959 26.1698C23.0959 26.1698 25.0669 24.158 24.139 22.6114C23.2111 21.0649 22.8634 19.7111 22.9011 18.6654C22.9032 18.6675 21.0871 24.816 23.0959 26.1698Z" fill="#E2017B"/>
  <path d="M33.7891 30.4238L31.2064 30.7235L30.1046 32.2659L28.6803 31.0148L26.0976 31.3145L24.9958 32.8568L25.3017 35.491L30.9488 39.567L35.5172 34.3091L35.2134 31.6749L33.7891 30.4238Z" fill="white"/>
</svg>
